<?xml version="1.0" encoding="UTF-8" standalone="no"?>
<!DOCTYPE svg PUBLIC "-//W3C//DTD SVG 1.1//EN" "http://www.w3.org/Graphics/SVG/1.1/DTD/svg11.dtd">
<svg width="100%" height="100%" viewBox="0 0 174 48" version="1.1" xmlns="http://www.w3.org/2000/svg" xmlns:xlink="http://www.w3.org/1999/xlink" xml:space="preserve" xmlns:serif="http://www.serif.com/" style="fill-rule:evenodd;clip-rule:evenodd;stroke-linejoin:round;stroke-miterlimit:2;">
    <rect id="Artboard1" x="0" y="0" width="173.925" height="47.975" style="fill:none;"/>
    <clipPath id="_clip1">
        <rect id="Artboard11" serif:id="Artboard1" x="0" y="0" width="173.925" height="47.975"/>
    </clipPath>
    <g clip-path="url(#_clip1)">
        <g transform="matrix(1,0,0,1,-194.085,-176.438)">
            <g transform="matrix(50,0,0,50,193.573,214.5)">
                <path d="M0.197,-0.25L0.153,-0L0.01,-0L0.134,-0.711L0.383,-0.71C0.46,-0.71 0.52,-0.689 0.564,-0.646C0.608,-0.604 0.627,-0.548 0.622,-0.479C0.616,-0.41 0.587,-0.354 0.534,-0.313C0.482,-0.271 0.414,-0.25 0.332,-0.25L0.197,-0.25ZM0.217,-0.369L0.336,-0.368C0.375,-0.368 0.407,-0.378 0.432,-0.398C0.458,-0.418 0.473,-0.445 0.478,-0.479C0.482,-0.512 0.477,-0.539 0.461,-0.56C0.445,-0.58 0.422,-0.59 0.391,-0.592L0.256,-0.592L0.217,-0.369Z" style="fill-rule:nonzero;"/>
            </g>
            <g transform="matrix(50,0,0,50,225.091,214.5)">
                <path d="M0.363,-0.396C0.344,-0.399 0.329,-0.401 0.317,-0.401C0.268,-0.402 0.229,-0.384 0.2,-0.346L0.139,-0L0.001,-0L0.093,-0.528L0.223,-0.529L0.21,-0.464C0.243,-0.514 0.284,-0.539 0.333,-0.539C0.347,-0.539 0.363,-0.537 0.381,-0.532L0.363,-0.396Z" style="fill-rule:nonzero;"/>
            </g>
            <g transform="matrix(50,0,0,50,242.157,214.5)">
                <path d="M0.304,-0.538C0.35,-0.537 0.39,-0.525 0.424,-0.502C0.458,-0.479 0.483,-0.447 0.498,-0.406C0.514,-0.365 0.52,-0.32 0.515,-0.27C0.508,-0.186 0.478,-0.118 0.427,-0.066C0.377,-0.014 0.314,0.011 0.239,0.01C0.193,0.009 0.153,-0.003 0.12,-0.026C0.086,-0.049 0.061,-0.08 0.045,-0.121C0.029,-0.162 0.024,-0.207 0.028,-0.256C0.037,-0.343 0.066,-0.412 0.117,-0.464C0.168,-0.515 0.23,-0.54 0.304,-0.538ZM0.165,-0.206C0.165,-0.175 0.173,-0.15 0.187,-0.132C0.201,-0.114 0.22,-0.105 0.246,-0.104C0.288,-0.103 0.321,-0.122 0.345,-0.162C0.369,-0.202 0.381,-0.255 0.379,-0.32C0.378,-0.352 0.37,-0.377 0.356,-0.395C0.342,-0.414 0.323,-0.424 0.297,-0.424C0.256,-0.426 0.223,-0.406 0.198,-0.367C0.174,-0.327 0.163,-0.273 0.165,-0.206Z" style="fill-rule:nonzero;"/>
            </g>
            <g transform="matrix(50,0,0,50,269.818,214.5)">
                <path d="M0.039,-0L0.112,-0.425L0.036,-0.425L0.054,-0.528L0.13,-0.529L0.137,-0.582C0.146,-0.638 0.169,-0.682 0.206,-0.714C0.243,-0.746 0.291,-0.762 0.349,-0.761C0.369,-0.761 0.394,-0.757 0.424,-0.751L0.412,-0.642C0.396,-0.646 0.382,-0.647 0.371,-0.647C0.347,-0.648 0.326,-0.642 0.308,-0.629C0.291,-0.616 0.28,-0.597 0.276,-0.571L0.269,-0.528L0.371,-0.528L0.353,-0.425L0.251,-0.425L0.177,-0L0.039,-0Z" style="fill-rule:nonzero;"/>
            </g>
            <g transform="matrix(50,0,0,50,287.445,214.5)">
                <path d="M0.329,-0.055C0.29,-0.011 0.241,0.011 0.183,0.01C0.132,0.009 0.094,-0.009 0.068,-0.045C0.042,-0.081 0.032,-0.128 0.038,-0.187L0.095,-0.528L0.232,-0.528L0.174,-0.185C0.173,-0.174 0.173,-0.164 0.174,-0.154C0.177,-0.122 0.195,-0.105 0.228,-0.104C0.271,-0.103 0.306,-0.119 0.334,-0.153L0.4,-0.528L0.539,-0.528L0.447,-0L0.318,-0L0.329,-0.055Z" style="fill-rule:nonzero;"/>
            </g>
            <g transform="matrix(50,0,0,50,314.837,214.5)">
                <path d="M0.308,-0.149C0.313,-0.175 0.295,-0.194 0.253,-0.206L0.209,-0.217C0.104,-0.246 0.053,-0.297 0.056,-0.37C0.057,-0.42 0.079,-0.461 0.122,-0.492C0.164,-0.523 0.215,-0.539 0.275,-0.538C0.335,-0.537 0.383,-0.522 0.42,-0.491C0.457,-0.46 0.475,-0.419 0.476,-0.367L0.339,-0.368C0.34,-0.413 0.318,-0.436 0.272,-0.437C0.25,-0.437 0.232,-0.431 0.216,-0.42C0.2,-0.41 0.191,-0.395 0.187,-0.377C0.182,-0.351 0.202,-0.333 0.246,-0.322L0.266,-0.317C0.311,-0.307 0.345,-0.294 0.369,-0.281C0.392,-0.267 0.411,-0.25 0.424,-0.229C0.436,-0.208 0.442,-0.184 0.441,-0.155C0.44,-0.122 0.43,-0.092 0.409,-0.067C0.388,-0.042 0.36,-0.023 0.324,-0.009C0.288,0.004 0.25,0.011 0.21,0.01C0.152,0.009 0.103,-0.008 0.064,-0.041C0.025,-0.074 0.005,-0.117 0.004,-0.169L0.134,-0.168C0.136,-0.118 0.163,-0.092 0.215,-0.091C0.241,-0.091 0.262,-0.097 0.278,-0.107C0.295,-0.117 0.304,-0.131 0.308,-0.149Z" style="fill-rule:nonzero;"/>
            </g>
            <g transform="matrix(50,0,0,50,340.008,214.5)">
                <path d="M0.36,-0.721C0.423,-0.72 0.473,-0.702 0.51,-0.668C0.547,-0.634 0.563,-0.589 0.56,-0.532C0.555,-0.465 0.516,-0.412 0.442,-0.373C0.472,-0.359 0.495,-0.338 0.511,-0.309C0.528,-0.28 0.535,-0.245 0.532,-0.206C0.528,-0.14 0.504,-0.087 0.46,-0.047C0.417,-0.008 0.362,0.012 0.295,0.01C0.248,0.01 0.204,-0.003 0.164,-0.028L0.12,0.198L-0.019,0.198L0.102,-0.504C0.111,-0.569 0.139,-0.621 0.188,-0.662C0.236,-0.702 0.293,-0.722 0.36,-0.721ZM0.311,-0.418C0.343,-0.419 0.368,-0.428 0.386,-0.447C0.404,-0.466 0.415,-0.491 0.419,-0.522C0.422,-0.547 0.417,-0.567 0.405,-0.583C0.392,-0.599 0.375,-0.607 0.353,-0.607C0.325,-0.608 0.3,-0.599 0.28,-0.58C0.259,-0.561 0.246,-0.536 0.24,-0.505L0.175,-0.132C0.198,-0.113 0.229,-0.104 0.269,-0.104C0.309,-0.104 0.342,-0.117 0.367,-0.145C0.392,-0.173 0.402,-0.207 0.397,-0.249C0.394,-0.269 0.387,-0.285 0.374,-0.297C0.361,-0.308 0.343,-0.314 0.322,-0.315L0.267,-0.316L0.281,-0.419L0.311,-0.418Z" style="fill-rule:nonzero;"/>
            </g>
        </g>
    </g>
</svg>
